<svg width="31" height="31" viewBox="0 0 31 31" fill="none" xmlns="http://www.w3.org/2000/svg">
<path d="M18.4221 30.1436L14.7366 25.1352C14.3156 24.5632 14.2312 23.809 14.5167 23.1581L17.0114 17.4621C17.2969 16.8112 17.9067 16.3614 18.6131 16.2836L24.7934 15.596C25.4998 15.5172 26.194 15.8215 26.615 16.3936L30.3005 21.402C30.7215 21.974 30.8059 22.7282 30.5204 23.3791L28.0257 29.075C27.7402 29.7259 27.1304 30.1758 26.424 30.2536L20.2437 30.9411C19.5373 31.02 18.8431 30.7156 18.4221 30.1436Z" fill="white"/>
<path d="M1.30982 18.431L6.31821 14.7455C6.89025 14.3246 7.64445 14.2401 8.29535 14.5256L13.9913 17.0204C14.6422 17.3058 15.0921 17.9156 15.1698 18.6221L15.8574 24.8023C15.9362 25.5087 15.6319 26.203 15.0598 26.6239L10.0515 30.3094C9.47942 30.7304 8.72521 30.8148 8.07431 30.5293L2.37837 28.0346C1.72747 27.7491 1.27761 27.1393 1.19986 26.4329L0.512301 20.2526C0.433438 19.5462 0.737784 18.852 1.30982 18.431Z" fill="white"/>
<path d="M13.0226 1.31861L16.7081 6.327C17.1291 6.89904 17.2135 7.65324 16.928 8.30414L14.4333 14.0001C14.1478 14.651 13.538 15.1008 12.8316 15.1786L6.65133 15.8662C5.94489 15.945 5.25067 15.6407 4.82969 15.0686L1.14421 10.0602C0.723235 9.4882 0.638817 8.734 0.924281 8.0831L3.41903 2.38827C3.7045 1.73737 4.3143 1.28751 5.02074 1.20976L11.201 0.52109C11.9074 0.442227 12.6016 0.746573 13.0226 1.31861Z" fill="white"/>
<path d="M30.135 13.0314L25.1267 16.7169C24.5546 17.1379 23.8004 17.2223 23.1495 16.9368L17.4536 14.4421C16.8027 14.1566 16.3528 13.5468 16.2751 12.8404L15.5875 6.66012C15.5086 5.95368 15.813 5.25946 16.385 4.83848L21.3934 1.153C21.9654 0.732024 22.7196 0.647607 23.3705 0.93307L29.0665 3.42782C29.7174 3.71329 30.1673 4.32309 30.245 5.02953L30.9326 11.2098C31.0114 11.9162 30.7071 12.6104 30.135 13.0314Z" fill="white"/>
</svg>