<svg width="41" height="41" viewBox="0 0 41 41" fill="none" xmlns="http://www.w3.org/2000/svg">
<g clip-path="url(#clip0_1078_2953)">
<path d="M20.5 40.5088C31.5457 40.5088 40.5 31.5545 40.5 20.5088C40.5 9.46309 31.5457 0.508789 20.5 0.508789C9.45431 0.508789 0.5 9.46309 0.5 20.5088C0.5 31.5545 9.45431 40.5088 20.5 40.5088Z" fill="#1D1D1D"/>
<path d="M20.5 12.8962C16.1904 12.8962 12.6951 16.3909 12.6951 20.7011C12.6951 24.1496 14.9312 27.0751 18.033 28.1073C18.4226 28.1795 18.5488 27.9375 18.5488 27.732V26.279C16.3778 26.7512 15.9257 25.358 15.9257 25.358C15.5705 24.4559 15.0587 24.2159 15.0587 24.2159C14.3504 23.7314 15.1127 23.7418 15.1127 23.7418C15.8964 23.7964 16.3088 24.5463 16.3088 24.5463C17.0047 25.7392 18.1344 25.3945 18.58 25.1948C18.6496 24.6907 18.8519 24.346 19.0756 24.1516C17.3423 23.9531 15.5198 23.2839 15.5198 20.294C15.5198 19.4413 15.8249 18.7453 16.3237 18.199C16.2431 18.0019 15.9758 17.2078 16.3998 16.1333C16.3998 16.1333 17.0554 15.9239 18.5468 16.9333C19.1693 16.7603 19.8366 16.6738 20.5 16.6706C21.1634 16.6738 21.8314 16.7603 22.4551 16.9333C23.9452 15.9239 24.5995 16.1333 24.5995 16.1333C25.0242 17.2084 24.7569 18.0026 24.6763 18.199C25.1771 18.7453 25.4795 19.4419 25.4795 20.294C25.4795 23.2917 23.6539 23.9519 21.9159 24.145C22.1956 24.387 22.4512 24.8618 22.4512 25.5902V27.732C22.4512 27.9395 22.5761 28.1834 22.9722 28.1067C26.0714 27.0731 28.3049 24.1482 28.3049 20.7011C28.3049 16.3909 24.8103 12.8962 20.5 12.8962Z" fill="white"/>
</g>
<defs>
<clipPath id="clip0_1078_2953">
<rect width="40" height="40" fill="white" transform="translate(0.5 0.508789)"/>
</clipPath>
</defs>
</svg>
