<svg width="41" height="41" viewBox="0 0 41 41" fill="none" xmlns="http://www.w3.org/2000/svg">
<g clip-path="url(#clip0_1078_2945)">
<path d="M20.5 40.5088C31.5457 40.5088 40.5 31.5545 40.5 20.5088C40.5 9.46309 31.5457 0.508789 20.5 0.508789C9.4543 0.508789 0.5 9.46309 0.5 20.5088C0.5 31.5545 9.4543 40.5088 20.5 40.5088Z" fill="#1D1D1D"/>
<path d="M27.3908 14.1086L24.8472 26.8216C24.8472 26.8216 24.4899 27.7052 23.514 27.2819L17.6482 22.822L15.5151 21.801L11.9262 20.6C11.9262 20.6 11.3769 20.4043 11.3237 19.981C11.2703 19.5577 11.9476 19.3302 11.9476 19.3302L26.223 13.7752C26.2176 13.7752 27.3908 13.262 27.3908 14.1086Z" fill="white"/>
<path d="M17.2027 26.6842C17.2027 26.6842 17.0321 26.6683 16.8187 25.9964C16.6055 25.3245 15.5229 21.801 15.5229 21.801L24.1405 16.3677C24.1405 16.3677 24.6364 16.0661 24.6204 16.3677C24.6204 16.3677 24.711 16.4205 24.4444 16.6692C24.1777 16.9178 17.672 22.7163 17.672 22.7163" fill="#E6E6E6"/>
<path d="M19.8973 24.5315L17.5777 26.6319C17.5777 26.6319 17.3964 26.7695 17.1991 26.6848L17.6416 22.7856" fill="#1D1D1D"/>
</g>
<defs>
<clipPath id="clip0_1078_2945">
<rect width="40" height="40" fill="white" transform="translate(0.5 0.508789)"/>
</clipPath>
</defs>
</svg>
