<svg width="40" height="41" viewBox="0 0 40 41" fill="none" xmlns="http://www.w3.org/2000/svg">
<g clip-path="url(#clip0_1078_2942)">
<path d="M20 40.5088C31.0457 40.5088 40 31.5545 40 20.5088C40 9.46309 31.0457 0.508789 20 0.508789C8.95431 0.508789 0 9.46309 0 20.5088C0 31.5545 8.95431 40.5088 20 40.5088Z" fill="#1D1D1D"/>
<path d="M16.302 15.583C19.1765 15.583 21.5067 17.8458 21.5067 20.637C21.5067 23.4282 19.1764 25.6908 16.302 25.6908C13.4276 25.6908 11.097 23.4282 11.097 20.637C11.097 17.8458 13.4274 15.583 16.302 15.583ZM24.6139 15.879C26.0512 15.879 27.2163 18.0091 27.2163 20.637C27.2163 23.2643 26.0514 25.3949 24.6141 25.3949C23.1767 25.3949 22.0116 23.2643 22.0116 20.637C22.0116 18.0097 23.1765 15.879 24.6139 15.879ZM28.6367 16.3746C29.1421 16.3746 29.5519 18.2829 29.5519 20.637C29.5519 22.9904 29.1423 24.8994 28.6367 24.8994C28.1311 24.8994 27.7216 22.9909 27.7216 20.637C27.7216 18.2831 28.1313 16.3746 28.6367 16.3746Z" fill="white"/>
</g>
<defs>
<clipPath id="clip0_1078_2942">
<rect width="40" height="40" fill="white" transform="translate(0 0.508789)"/>
</clipPath>
</defs>
</svg>
