<svg width="41" height="41" viewBox="0 0 41 41" fill="none" xmlns="http://www.w3.org/2000/svg">
<g clip-path="url(#clip0_1078_2938)">
<path d="M20.5 40.5088C31.5457 40.5088 40.5 31.5545 40.5 20.5088C40.5 9.46309 31.5457 0.508789 20.5 0.508789C9.45432 0.508789 0.5 9.46309 0.5 20.5088C0.5 31.5545 9.45432 40.5088 20.5 40.5088Z" fill="#1D1D1D"/>
<path d="M11.1398 11.6552H16.6766L21.7943 18.5392L28.1647 11.4976L29.6783 11.5238L22.5489 19.5296L29.8603 29.3626H24.3258L19.4954 22.9474L13.5945 29.5204H12.105L18.7627 22.0097L11.1398 11.6552ZM16.1545 12.6719H13.2304L24.929 28.3197H27.8005L16.1545 12.6719Z" fill="white"/>
</g>
<defs>
<clipPath id="clip0_1078_2938">
<rect width="40" height="40" fill="white" transform="translate(0.5 0.508789)"/>
</clipPath>
</defs>
</svg>
