<svg width="65" height="17" viewBox="0 0 65 17" fill="none" xmlns="http://www.w3.org/2000/svg">
<path d="M60.9497 2.75098H51.9932C51.2866 2.75098 50.7137 3.32383 50.7137 4.03047V12.987C50.7137 13.6936 51.2866 14.2665 51.9932 14.2665H60.9497C61.6564 14.2665 62.2292 13.6936 62.2292 12.987V4.03047C62.2292 3.32383 61.6564 2.75098 60.9497 2.75098Z" stroke="#85858C" stroke-width="1.5" stroke-linecap="round" stroke-linejoin="round"/>
<path d="M59.0305 5.94971H59.0369" stroke="#85858C" stroke-width="3" stroke-linecap="round" stroke-linejoin="round"/>
<path d="M53.9126 5.94971H53.919" stroke="#85858C" stroke-width="3" stroke-linecap="round" stroke-linejoin="round"/>
<path d="M53.9126 11.0679H53.919" stroke="#85858C" stroke-width="3" stroke-linecap="round" stroke-linejoin="round"/>
<path d="M59.0305 11.0679H59.0369" stroke="#85858C" stroke-width="3" stroke-linecap="round" stroke-linejoin="round"/>
<path d="M44.8753 2.75098H35.9188C35.2121 2.75098 34.6393 3.32383 34.6393 4.03047V12.987C34.6393 13.6936 35.2121 14.2665 35.9188 14.2665H44.8753C45.5819 14.2665 46.1548 13.6936 46.1548 12.987V4.03047C46.1548 3.32383 45.5819 2.75098 44.8753 2.75098Z" stroke="#85858C" stroke-width="1.5" stroke-linecap="round" stroke-linejoin="round"/>
<path d="M42.3163 6.5896H42.3227" stroke="#85858C" stroke-width="3" stroke-linecap="round" stroke-linejoin="round"/>
<path d="M38.4778 10.428H38.4842" stroke="#85858C" stroke-width="3" stroke-linecap="round" stroke-linejoin="round"/>
<path d="M12.7263 2.75098H3.76985C3.06321 2.75098 2.49036 3.32383 2.49036 4.03047V12.987C2.49036 13.6936 3.06321 14.2665 3.76985 14.2665H12.7263C13.433 14.2665 14.0058 13.6936 14.0058 12.987V4.03047C14.0058 3.32383 13.433 2.75098 12.7263 2.75098Z" stroke="#85858C" stroke-width="1.5" stroke-linecap="round" stroke-linejoin="round"/>
<path d="M10.1674 6.5896H10.1738" stroke="#85858C" stroke-width="3" stroke-linecap="round" stroke-linejoin="round"/>
<path d="M6.32886 10.428H6.33526" stroke="#85858C" stroke-width="3" stroke-linecap="round" stroke-linejoin="round"/>
<path d="M28.8008 2.75098H19.8443C19.1377 2.75098 18.5648 3.32383 18.5648 4.03047V12.987C18.5648 13.6936 19.1377 14.2665 19.8443 14.2665H28.8008C29.5074 14.2665 30.0803 13.6936 30.0803 12.987V4.03047C30.0803 3.32383 29.5074 2.75098 28.8008 2.75098Z" stroke="#85858C" stroke-width="1.5" stroke-linecap="round" stroke-linejoin="round"/>
</svg>
