<svg width="40" height="41" viewBox="0 0 40 41" fill="none" xmlns="http://www.w3.org/2000/svg">
<g clip-path="url(#clip0_1078_2950)">
<path d="M20 40.5088C31.0457 40.5088 40 31.5545 40 20.5088C40 9.46309 31.0457 0.508789 20 0.508789C8.95431 0.508789 0 9.46309 0 20.5088C0 31.5545 8.95431 40.5088 20 40.5088Z" fill="#1D1D1D"/>
<path d="M25.2157 13.8457H14.7843C13.9047 13.8457 13.1885 14.5507 13.1885 15.4242V25.7845C13.1885 26.6582 13.9047 27.3632 14.7843 27.3632H23.612L23.1994 25.9455L24.1959 26.8574L25.1378 27.7157L26.8115 29.1717V15.4242C26.8115 14.5507 26.0953 13.8457 25.2157 13.8457ZM22.2108 23.8535C22.2108 23.8535 21.9305 23.524 21.6971 23.2328C22.7168 22.9493 23.106 22.3209 23.106 22.3209C22.7868 22.5278 22.4833 22.6734 22.2108 22.773C21.8215 22.934 21.4479 23.0412 21.082 23.1026C20.3347 23.2404 19.6496 23.2022 19.0658 23.0949C18.6221 23.0106 18.2407 22.8879 17.9215 22.7654C17.7424 22.6964 17.5478 22.6121 17.3532 22.5048C17.3298 22.4895 17.3065 22.4818 17.2831 22.4665C17.2676 22.4589 17.2598 22.4512 17.252 22.4436C17.1119 22.3669 17.034 22.3132 17.034 22.3132C17.034 22.3132 17.4077 22.9263 18.3964 23.2175C18.1628 23.5086 17.8748 23.8535 17.8748 23.8535C16.1543 23.7998 15.5005 22.6887 15.5005 22.6887C15.5005 20.2212 16.6215 18.2212 16.6215 18.2212C17.7424 17.3936 18.809 17.4166 18.809 17.4166L18.8868 17.5085C17.4855 17.9071 16.8394 18.5124 16.8394 18.5124C16.8394 18.5124 17.0107 18.4204 17.2987 18.2902C18.1317 17.93 18.7934 17.8304 19.0658 17.8075C19.1126 17.7998 19.1514 17.7921 19.1981 17.7921C19.6731 17.7308 20.2101 17.7155 20.7706 17.7767C21.5102 17.861 22.3042 18.0757 23.1138 18.5124C23.1138 18.5124 22.4988 17.9377 21.1754 17.5393L21.2845 17.4166C21.2845 17.4166 22.3509 17.3936 23.4719 18.2212C23.4719 18.2212 24.5929 20.2212 24.5929 22.6887C24.5929 22.6887 23.9312 23.7998 22.2108 23.8535ZM18.5909 20.2749C18.1472 20.2749 17.797 20.6581 17.797 21.1255C17.797 21.5929 18.155 21.976 18.5909 21.976C19.0347 21.976 19.385 21.5929 19.385 21.1255C19.3928 20.6581 19.0347 20.2749 18.5909 20.2749ZM21.4324 20.2749C20.9886 20.2749 20.6383 20.6581 20.6383 21.1255C20.6383 21.5929 20.9964 21.976 21.4324 21.976C21.8761 21.976 22.2263 21.5929 22.2263 21.1255C22.2263 20.6581 21.8761 20.2749 21.4324 20.2749Z" fill="white"/>
</g>
<defs>
<clipPath id="clip0_1078_2950">
<rect width="40" height="40" fill="white" transform="translate(0 0.508789)"/>
</clipPath>
</defs>
</svg>
