<svg width="19" height="18" viewBox="0 0 19 18" fill="none" xmlns="http://www.w3.org/2000/svg">
<g clip-path="url(#clip0_1410_99)">
<path d="M11.0962 17.5213L8.91718 14.5601C8.66828 14.2219 8.61837 13.776 8.78715 13.3912L10.2621 10.0235C10.4309 9.63869 10.7915 9.37272 11.2091 9.32675L14.8631 8.92024C15.2808 8.87361 15.6912 9.05355 15.9401 9.39176L18.1191 12.3529C18.368 12.6911 18.4179 13.137 18.2491 13.5219L16.7742 16.8895C16.6054 17.2744 16.2448 17.5403 15.8272 17.5863L12.1732 17.9928C11.7555 18.0394 11.3451 17.8595 11.0962 17.5213Z" fill="#85858C"/>
<path d="M0.978797 10.5962L3.93994 8.41724C4.27815 8.16834 4.72406 8.11843 5.1089 8.28721L8.47655 9.7622C8.86139 9.93098 9.12736 10.2915 9.17333 10.7092L9.57984 14.3632C9.62647 14.7808 9.44653 15.1913 9.10832 15.4402L6.14717 17.6192C5.80896 17.8681 5.36305 17.918 4.97821 17.7492L1.61056 16.2742C1.22572 16.1054 0.959752 15.7449 0.913782 15.3272L0.507273 11.6733C0.460646 11.2556 0.640587 10.8451 0.978797 10.5962Z" fill="#85858C"/>
<path d="M7.90378 0.478797L10.0828 3.43994C10.3317 3.77815 10.3816 4.22406 10.2128 4.6089L8.73781 7.97655C8.56904 8.36139 8.2085 8.62736 7.79082 8.67333L4.13684 9.07984C3.71917 9.12647 3.30872 8.94653 3.05982 8.60832L0.880833 5.64717C0.631936 5.30896 0.582026 4.86305 0.750802 4.47821L2.22579 1.11122C2.39457 0.72638 2.75511 0.460409 3.17278 0.414439L6.82676 0.00727298C7.24444 -0.039354 7.65488 0.140587 7.90378 0.478797Z" fill="#85858C"/>
<path d="M18.0213 7.40393L15.0602 9.58292C14.722 9.83182 14.2761 9.88173 13.8912 9.71295L10.5236 8.23797C10.1387 8.06919 9.87278 7.70865 9.82681 7.29098L9.4203 3.637C9.37367 3.21932 9.55361 2.80887 9.89182 2.55998L12.853 0.380985C13.1912 0.132089 13.6371 0.0821784 14.0219 0.250955L17.3896 1.72594C17.7744 1.89472 18.0404 2.25526 18.0864 2.67293L18.4929 6.32691C18.5395 6.74459 18.3596 7.15504 18.0213 7.40393Z" fill="#85858C"/>
</g>
<defs>
<clipPath id="clip0_1410_99">
<rect width="18" height="18" fill="white" transform="translate(0.5)"/>
</clipPath>
</defs>
</svg>
